<svg xmlns="http://www.w3.org/2000/svg" width="1440" height="900" viewBox="0 0 1440 900"><defs><linearGradient id="appBg" x1="0" x2="1"><stop stop-color="#120914"/><stop offset=".48" stop-color="#3B1F35"/><stop offset="1" stop-color="#5B0F2F"/></linearGradient><linearGradient id="marble" x1="0" y1="0" x2="1" y2="1"><stop stop-color="#fffaf7"/><stop offset=".46" stop-color="#fbf1ed"/><stop offset="1" stop-color="#f7e8f1"/></linearGradient><linearGradient id="nail" x1="0" x2="1"><stop stop-color="#ff8bbf"/><stop offset=".52" stop-color="#f04f96"/><stop offset="1" stop-color="#a81f5d"/></linearGradient><filter id="shadow"><feDropShadow dx="0" dy="18" stdDeviation="16" flood-color="#3b1f35" flood-opacity=".22"/></filter></defs><rect width="1440" height="900" fill="url(#appBg)"/><text x="170" y="52" fill="#fffaf7" font-family="Arial, sans-serif" font-size="30" font-weight="800">NAIL SHOP™</text><text x="985" y="60" fill="#fffaf7" font-family="Georgia" font-size="58" font-style="italic">AnitaSet</text><text x="1050" y="86" fill="#d8a642" font-family="Arial" font-size="13" font-weight="900" letter-spacing="5">THE NAIL BOSS</text><rect x="16" y="112" width="136" height="742" rx="18" fill="#150b16" stroke="#d8a642" opacity=".98"/><text x="38" y="188" fill="#f04f96" font-size="18" font-family="Arial" font-weight="900">AnitaSet</text><text x="36" y="278" fill="#fffaf7" font-size="13" font-family="Arial" font-weight="800">● DESIGN STUDIO</text><text x="36" y="334" fill="#cbb8c5" font-size="13" font-family="Arial" font-weight="800">□ DASHBOARD</text><text x="36" y="390" fill="#cbb8c5" font-size="13" font-family="Arial" font-weight="800">□ CLIENTS</text><text x="36" y="446" fill="#cbb8c5" font-size="13" font-family="Arial" font-weight="800">□ PROPOSALS</text><text x="36" y="502" fill="#cbb8c5" font-size="13" font-family="Arial" font-weight="800">□ NAIL SHOP™</text><g transform="translate(55 694)"><g transform="translate(0 0) scale(0.28)" filter="url(#shadow)"><path d="M70 0 C10 4 0 90 7 250 C15 392 45 455 70 458 C95 455 125 392 133 250 C140 90 130 4 70 0Z" fill="url(#nail)"/><path d="M40 42 C20 140 22 310 47 405" stroke="#fff" stroke-width="17" opacity=".58" fill="none"/><path d="M101 64 C118 170 113 315 96 392" stroke="#5b0f2f" stroke-width="8" opacity=".18" fill="none"/></g></g><text x="38" y="834" fill="#fffaf7" font-size="13" font-family="Arial" font-weight="900">Signature Nail™</text><rect x="210" y="140" width="1180" height="700" rx="26" fill="#fffaf7" stroke="#d8a642"/><rect x="238" y="174" width="1124" height="176" rx="22" fill="#3B1F35"/><text x="278" y="246" fill="#fffaf7" font-size="42" font-family="Arial" font-weight="950">Nail Shop™</text><text x="280" y="292" fill="#f04f96" font-size="20" font-family="Arial" font-weight="800">Luxury nail boutique • Display window • Book • Buy • Gallery • About</text><rect x="258" y="394" width="420" height="390" rx="20" fill="#fff6fb" stroke="#e8cddd"/><text x="292" y="450" fill="#3B1F35" font-family="Arial, sans-serif" font-size="24" font-weight="950">Live Nail Shop™ preview</text><text x="292" y="508" fill="#3B1F35" font-size="18" font-family="Arial" font-weight="800">Featured Designs</text><text x="292" y="558" fill="#3B1F35" font-size="18" font-family="Arial" font-weight="800">Book • Buy • Gallery • About</text><rect x="728" y="394" width="570" height="390" rx="20" fill="url(#marble)" stroke="#e8cddd"/><g transform="translate(935 450) scale(0.55)" filter="url(#shadow)"><path d="M70 0 C10 4 0 90 7 250 C15 392 45 455 70 458 C95 455 125 392 133 250 C140 90 130 4 70 0Z" fill="url(#nail)"/><path d="M40 42 C20 140 22 310 47 405" stroke="#fff" stroke-width="17" opacity=".58" fill="none"/><path d="M101 64 C118 170 113 315 96 392" stroke="#5b0f2f" stroke-width="8" opacity=".18" fill="none"/></g><g transform="translate(1028 430) scale(0.48)" filter="url(#shadow)"><path d="M70 0 C10 4 0 90 7 250 C15 392 45 455 70 458 C95 455 125 392 133 250 C140 90 130 4 70 0Z" fill="url(#nail)"/><path d="M40 42 C20 140 22 310 47 405" stroke="#fff" stroke-width="17" opacity=".58" fill="none"/><path d="M101 64 C118 170 113 315 96 392" stroke="#5b0f2f" stroke-width="8" opacity=".18" fill="none"/></g><g transform="translate(1112 452) scale(0.55)" filter="url(#shadow)"><path d="M70 0 C10 4 0 90 7 250 C15 392 45 455 70 458 C95 455 125 392 133 250 C140 90 130 4 70 0Z" fill="url(#nail)"/><path d="M40 42 C20 140 22 310 47 405" stroke="#fff" stroke-width="17" opacity=".58" fill="none"/><path d="M101 64 C118 170 113 315 96 392" stroke="#5b0f2f" stroke-width="8" opacity=".18" fill="none"/></g></svg>