<svg xmlns="http://www.w3.org/2000/svg" width="1440" height="900" viewBox="0 0 1440 900"><defs><linearGradient id="bg" x1="0" x2="1"><stop stop-color="#120914"/><stop offset=".48" stop-color="#3B1F35"/><stop offset="1" stop-color="#5B0F2F"/></linearGradient><linearGradient id="marble" x1="0" y1="0" x2="1" y2="1"><stop stop-color="#fffaf7"/><stop offset=".55" stop-color="#fbf1ed"/><stop offset="1" stop-color="#f7e8f1"/></linearGradient><linearGradient id="nail" x1="0" x2="1"><stop stop-color="#ff79b3"/><stop offset=".52" stop-color="#f04f96"/><stop offset="1" stop-color="#a81f5d"/></linearGradient></defs><rect width="1440" height="900" fill="url(#bg)"/><text x="172" y="54" fill="#fffaf7" font-family="Arial" font-size="30" font-weight="800">DESIGN STUDIO — SINGLE NAIL MODE</text><text x="910" y="56" fill="#fffaf7" font-family="Georgia" font-size="58" font-style="italic">AnitaSet</text><rect x="20" y="120" width="140" height="720" rx="18" fill="#1a0d19" stroke="#d8a642"/><text x="42" y="190" fill="#f04f96" font-size="18" font-weight="800">Design Studio</text><rect x="190" y="150" width="300" height="690" rx="18" fill="#fffaf7" stroke="#e8cddd"/><text x="220" y="190" fill="#f04f96" font-size="20" font-weight="800">POLISH STUDIO</text><rect x="510" y="115" width="760" height="86" rx="18" fill="#fffaf7" stroke="#d8a642"/><text x="545" y="166" fill="#3B1F35" font-size="18" font-weight="800">Template Tools    History    View    Perspective</text><rect x="510" y="215" width="760" height="625" rx="22" fill="url(#marble)" stroke="#d8a642"/><path d="M580 250 C720 300 1000 180 1205 320" stroke="#d8a642" opacity=".28" fill="none"/><path d="M595 690 C795 590 1005 760 1190 595" stroke="#d8a642" opacity=".2" fill="none"/><text x="540" y="255" fill="#3B1F35" font-size="18" font-weight="900">NAIL DESIGN TEMPLATE</text><ellipse cx="890" cy="772" rx="140" ry="22" fill="#3B1F35" opacity=".16"/><path d="M890 275 C792 278 755 372 766 565 C774 720 829 780 890 782 C951 780 1006 720 1014 565 C1025 372 988 278 890 275Z" fill="url(#nail)"/><path d="M842 318 C805 420 805 600 840 720" stroke="#fff" stroke-width="20" opacity=".58" fill="none"/><rect x="1290" y="150" width="130" height="690" rx="18" fill="#fffaf7" stroke="#e8cddd"/><text x="1310" y="190" fill="#f04f96" font-size="16" font-weight="800">DESIGN LAYERS</text></svg>
