<svg xmlns="http://www.w3.org/2000/svg" width="1360" height="582" viewBox="0 0 1360 582">
  <defs>
    <linearGradient id="brand" x1="0" x2="1"><stop stop-color="#3b1f35"/><stop offset=".55" stop-color="#7B2F59"/><stop offset="1" stop-color="#F5C8E8"/></linearGradient>
    <linearGradient id="surface" x1="0" y1="0" x2="1" y2="1"><stop stop-color="#fffaf7"/><stop offset=".52" stop-color="#fbf0f6"/><stop offset="1" stop-color="#f7e8f1"/></linearGradient>
    <filter id="shadow"><feDropShadow dx="0" dy="20" stdDeviation="18" flood-color="#3b1f35" flood-opacity=".16"/></filter>
  </defs>
  <rect width="1360" height="582" fill="url(#brand)"/>
  <rect width="67" height="582" fill="#3b1f35"/>
  <rect x="67" width="1293" height="80" fill="url(#brand)"/>
  <rect x="80" y="34" width="1268" height="39" rx="18" fill="#fffaf7" opacity=".20"/>
  <rect x="77" y="85" width="267" height="432" rx="17" fill="#fffaf7" stroke="#b98aa8" filter="url(#shadow)"/>
  <text x="89" y="108" font-family="Arial" font-size="13" font-weight="800" fill="#3b1f35">Sticker Studio™</text>
  <rect x="354" y="85" width="776" height="432" rx="17" fill="#fffaf7" stroke="#b98aa8" filter="url(#shadow)"/>
  <rect x="354" y="85" width="776" height="58" fill="#fffaf7" opacity=".98"/>
  <text x="368" y="120" font-family="Arial" font-size="15" font-weight="900" fill="#3b1f35" letter-spacing="2">TEMPLATE TOOLBAR</text>
  <rect x="536" y="98" width="248" height="34" rx="17" fill="#f5e1ee" stroke="#7B2F59"/>
  <rect x="542" y="103" width="112" height="24" rx="12" fill="#3b1f35"/>
  <text x="558" y="120" font-family="Arial" font-size="11" font-weight="800" fill="#fffaf7">FOCUS MODE</text>
  <text x="668" y="120" font-family="Arial" font-size="11" font-weight="800" fill="#7B2F59">FULL SET MODE</text>
  <rect x="410" y="167" width="664" height="354" rx="32" fill="url(#surface)" stroke="#e5cad8"/>
  <path d="M410 258 C560 180 690 220 1074 186" stroke="#fff" stroke-width="24" opacity=".18" fill="none"/>
  <path d="M410 430 C640 350 820 450 1074 340" stroke="#7B2F59" stroke-width="2" opacity=".05" fill="none"/>
  <ellipse cx="743" cy="488" rx="150" ry="24" fill="#3b1f35" opacity=".14"/>
  <path d="M695 253 C724 244 773 245 791 260 C843 323 801 455 743 521 C685 453 642 322 695 253Z" fill="#d98daf" filter="url(#shadow)"/>
  <path d="M710 292 C699 345 701 386 720 421" stroke="#fff" stroke-width="12" opacity=".25" fill="none" stroke-linecap="round"/>
  <rect x="1141" y="85" width="210" height="432" rx="17" fill="#fffaf7" stroke="#b98aa8" filter="url(#shadow)"/>
  <text x="1153" y="108" font-family="Arial" font-size="11" font-weight="800" fill="#7B2F59">DESIGN LAYERS</text>
  <g font-family="Arial" font-size="12" font-weight="700">
    <script type="application/ecmascript"><![CDATA[]]></script>
    <rect x="1152" y="135" width="187" height="42" rx="14" fill="#fff0f8" stroke="#7B2F59"/><text x="1160" y="161" fill="#3b1f35">⋮⋮  👁  🔒  Base Polish</text>
    <rect x="1152" y="185" width="187" height="42" rx="14" fill="#fff8fc" stroke="#eadce5"/><text x="1160" y="211" fill="#3b1f35">⋮⋮  ○  🔓  Gradient</text>
    <rect x="1152" y="235" width="187" height="42" rx="14" fill="#fff8fc" stroke="#eadce5"/><text x="1160" y="261" fill="#3b1f35">⋮⋮  ○  🔓  Pattern</text>
    <rect x="1152" y="285" width="187" height="42" rx="14" fill="#fff8fc" stroke="#eadce5"/><text x="1160" y="311" fill="#3b1f35">⋮⋮  ○  🔓  Drawing</text>
    <rect x="1152" y="335" width="187" height="42" rx="14" fill="#fff8fc" stroke="#eadce5"/><text x="1160" y="361" fill="#3b1f35">⋮⋮  ○  🔓  Sticker</text>
    <rect x="1152" y="385" width="187" height="42" rx="14" fill="#fff8fc" stroke="#eadce5"/><text x="1160" y="411" fill="#3b1f35">⋮⋮  ○  🔓  Charm</text>
    <rect x="1152" y="435" width="187" height="42" rx="14" fill="#fff8fc" stroke="#eadce5"/><text x="1160" y="461" fill="#3b1f35">⋮⋮  ○  🔓  Top Coat</text>
  </g>
</svg>
